<svg width="31" height="32" viewBox="0 0 31 32" fill="none" xmlns="http://www.w3.org/2000/svg">
<path d="M15.5 11.2C14.2667 11.2 13.084 11.7057 12.212 12.6059C11.3399 13.5061 10.85 14.727 10.85 16C10.85 17.273 11.3399 18.4939 12.212 19.3941C13.084 20.2943 14.2667 20.8 15.5 20.8C16.7333 20.8 17.916 20.2943 18.788 19.3941C19.6601 18.4939 20.15 17.273 20.15 16C20.15 14.727 19.6601 13.5061 18.788 12.6059C17.916 11.7057 16.7333 11.2 15.5 11.2ZM15.5 8C17.5554 8 19.5267 8.84285 20.9801 10.3431C22.4335 11.8434 23.25 13.8783 23.25 16C23.25 18.1217 22.4335 20.1566 20.9801 21.6569C19.5267 23.1571 17.5554 24 15.5 24C13.4446 24 11.4733 23.1571 10.0199 21.6569C8.56651 20.1566 7.75 18.1217 7.75 16C7.75 13.8783 8.56651 11.8434 10.0199 10.3431C11.4733 8.84285 13.4446 8 15.5 8ZM25.575 7.6C25.575 8.13043 25.3709 8.63914 25.0075 9.01421C24.6442 9.38929 24.1514 9.6 23.6375 9.6C23.1236 9.6 22.6308 9.38929 22.2675 9.01421C21.9041 8.63914 21.7 8.13043 21.7 7.6C21.7 7.06957 21.9041 6.56086 22.2675 6.18579C22.6308 5.81071 23.1236 5.6 23.6375 5.6C24.1514 5.6 24.6442 5.81071 25.0075 6.18579C25.3709 6.56086 25.575 7.06957 25.575 7.6ZM15.5 3.2C11.6653 3.2 11.0391 3.2112 9.25505 3.2928C8.03985 3.352 7.22455 3.52 6.46815 3.824C5.79545 4.0928 5.3103 4.4144 4.79415 4.9488C4.30901 5.43264 3.936 6.02333 3.70295 6.6768C3.40845 7.4608 3.2457 8.3008 3.1899 9.5536C3.1093 11.32 3.1 11.9376 3.1 16C3.1 19.9584 3.11085 20.6048 3.1899 22.4464C3.24725 23.6992 3.41 24.5424 3.70295 25.3216C3.96645 26.0176 4.27645 26.5184 4.79105 27.0496C5.3134 27.5872 5.79855 27.9088 6.46505 28.1744C7.23075 28.48 8.04605 28.6496 9.25505 28.7072C10.9662 28.7904 11.5645 28.8 15.5 28.8C19.3347 28.8 19.9609 28.7888 21.7449 28.7072C22.957 28.648 23.7739 28.48 24.5303 28.1776C25.2015 27.9072 25.6897 27.5856 26.2043 27.0544C26.7267 26.5152 27.0382 26.0144 27.2955 25.3264C27.59 24.5376 27.7543 23.6944 27.8101 22.4464C27.8907 20.68 27.9 20.0624 27.9 16C27.9 12.0416 27.8891 11.3952 27.8101 9.5536C27.7527 8.3024 27.59 7.4576 27.2955 6.6768C27.0619 6.024 26.6896 5.43354 26.2058 4.9488C25.7373 4.44775 25.165 4.06267 24.5318 3.8224C23.7723 3.5184 22.957 3.3504 21.7449 3.2928C20.0337 3.2096 19.4354 3.2 15.5 3.2ZM15.5 0C19.7113 0 20.2368 0.0159999 21.8891 0.0959999C23.5398 0.176 24.6636 0.4432 25.6525 0.84C26.6755 1.2464 27.5373 1.7968 28.3991 2.6848C29.1873 3.48463 29.7971 4.45214 30.1862 5.52C30.5691 6.5392 30.8295 7.7008 30.907 9.4048C30.9799 11.1104 31 11.6528 31 16C31 20.3472 30.9845 20.8896 30.907 22.5952C30.8295 24.2992 30.5691 25.4592 30.1862 26.48C29.7982 27.5484 29.1882 28.5162 28.3991 29.3152C27.624 30.1285 26.6868 30.758 25.6525 31.16C24.6651 31.5552 23.5398 31.824 21.8891 31.904C20.2368 31.9792 19.7113 32 15.5 32C11.2886 32 10.7632 31.984 9.1109 31.904C7.46015 31.824 6.3364 31.5552 5.3475 31.16C4.3126 30.7592 3.37517 30.1295 2.6009 29.3152C1.81258 28.5155 1.20269 27.548 0.81375 26.48C0.42935 25.4608 0.1705 24.2992 0.0929999 22.5952C0.0201499 20.8896 0 20.3472 0 16C0 11.6528 0.0154999 11.1104 0.0929999 9.4048C0.1705 7.6992 0.42935 6.5408 0.81375 5.52C1.20162 4.45149 1.81165 3.48371 2.6009 2.6848C3.37539 1.87077 4.31276 1.24117 5.3475 0.84C6.3364 0.4432 7.4586 0.176 9.1109 0.0959999C10.7632 0.0207999 11.2886 0 15.5 0Z" fill="white"/>
</svg>
