<svg width="31" height="26" viewBox="0 0 31 26" fill="none" xmlns="http://www.w3.org/2000/svg">
<path d="M21.4894 3.12572C20.3148 3.12552 19.1871 3.59134 18.3489 4.42295C17.5107 5.25455 17.029 6.38546 17.0076 7.57232L16.9643 10.0322C16.9618 10.1643 16.9316 10.2944 16.8759 10.4138C16.8201 10.5333 16.74 10.6395 16.6408 10.7255C16.5415 10.8115 16.4254 10.8753 16.3001 10.9128C16.1747 10.9502 16.0429 10.9604 15.9134 10.9428L13.501 10.6117C10.3266 10.1744 7.28521 8.69686 4.36742 6.24006C3.44324 11.4098 5.24832 14.9911 9.59564 17.7541L12.2955 19.469C12.4238 19.5505 12.5304 19.6625 12.6059 19.7952C12.6815 19.9279 12.7237 20.0773 12.7289 20.2304C12.734 20.3834 12.702 20.5354 12.6357 20.673C12.5693 20.8106 12.4705 20.9298 12.3481 21.0199L9.88773 22.8363C11.3513 22.9285 12.7406 22.8629 13.8935 22.6317C21.1849 21.1605 26.033 15.6159 26.033 6.46965C26.033 5.72309 24.469 3.12572 21.4894 3.12572ZM13.9167 7.51453C13.9437 6.00898 14.4095 4.54493 15.2559 3.30568C16.1023 2.06643 17.2916 1.10705 18.675 0.54767C20.0583 -0.0117129 21.5742 -0.146243 23.0329 0.160924C24.4915 0.46809 25.8281 1.2033 26.8752 2.27451C27.974 2.2667 28.909 2.54783 31 1.26711C30.4823 3.82856 30.2273 4.9406 29.1238 6.46965C29.1238 18.4054 21.8649 24.2092 14.4993 25.6945C9.44883 26.7129 2.10489 25.0401 0 22.8192C1.07254 22.7348 5.43068 22.2616 7.94975 20.3983C5.81859 18.9786 -2.66434 13.9338 2.91007 0.370607C5.5265 3.4584 8.18002 5.56065 10.8691 6.67582C12.6587 7.4177 13.0976 7.40208 13.9182 7.5161L13.9167 7.51453Z" fill="white"/>
</svg>
