<svg width="31" height="32" viewBox="0 0 31 32" fill="none" xmlns="http://www.w3.org/2000/svg">
<path d="M17.05 28.7008C20.1768 28.2901 23.0348 26.6658 25.0431 24.1581C27.0513 21.6503 28.0592 18.4473 27.8618 15.2C27.6645 11.9527 26.2766 8.90478 23.9804 6.67581C21.6843 4.44684 18.652 3.20403 15.5 3.2C12.3441 3.19757 9.30612 4.43734 7.00498 6.66668C4.70383 8.89603 3.31272 11.9472 3.1151 15.1985C2.91748 18.4497 3.92822 21.6565 5.94137 24.1652C7.95452 26.674 10.8186 28.296 13.95 28.7008V19.2H10.85V16H13.95V13.3536C13.95 11.2144 14.167 10.4384 14.57 9.656C14.967 8.8819 15.5805 8.2491 16.3308 7.84C16.9229 7.512 17.6591 7.3152 18.9456 7.2304C19.4556 7.1968 20.1159 7.2384 20.9265 7.3584V10.3984H20.15C18.7286 10.3984 18.1412 10.4672 17.7909 10.6608C17.5819 10.7718 17.4117 10.9474 17.3042 11.1632C17.1182 11.5248 17.05 11.8832 17.05 13.352V16H20.925L20.15 19.2H17.05V28.7008ZM15.5 32C6.93935 32 0 24.8368 0 16C0 7.1632 6.93935 0 15.5 0C24.0606 0 31 7.1632 31 16C31 24.8368 24.0606 32 15.5 32Z" fill="white"/>
</svg>
