<svg width="31" height="32" viewBox="0 0 31 32" fill="none" xmlns="http://www.w3.org/2000/svg">
<path d="M15.5 28.8C18.7887 28.8 21.9427 27.4514 24.2681 25.051C26.5936 22.6505 27.9 19.3948 27.9 16C27.9 12.6052 26.5936 9.3495 24.2681 6.94903C21.9427 4.54857 18.7887 3.2 15.5 3.2C12.2113 3.2 9.05733 4.54857 6.73188 6.94903C4.40642 9.3495 3.1 12.6052 3.1 16C3.1 19.3948 4.40642 22.6505 6.73188 25.051C9.05733 27.4514 12.2113 28.8 15.5 28.8ZM15.5 32C6.93935 32 0 24.8368 0 16C0 7.1632 6.93935 0 15.5 0C24.0606 0 31 7.1632 31 16C31 24.8368 24.0606 32 15.5 32ZM10.6795 17.872L6.8076 16.6256C5.9706 16.3616 5.96595 15.7664 6.99515 15.3392L22.0813 9.3232C22.9571 8.9552 23.453 9.4208 23.1694 10.5872L20.601 23.0992C20.4212 23.9904 19.902 24.2032 19.1812 23.792L15.2272 20.7712L13.3842 22.608C13.1952 22.7968 13.0417 22.9584 12.7503 22.9984C12.4604 23.04 12.2218 22.9504 12.0466 22.4544L10.6981 17.8608L10.6795 17.8736V17.872Z" fill="white"/>
</svg>
